<svg aria-hidden="true" style="position: absolute; width: 0; height: 0; overflow: hidden;" version="1.1" xmlns="http://www.w3.org/2000/svg" xmlns:xlink="http://www.w3.org/1999/xlink">
<defs>
<symbol id="icon-warning" viewBox="0 0 32 32">
<path d="M31.576 26.211l-11.999-24c-0.677-1.355-2.061-2.211-3.577-2.211s-2.9 0.856-3.577 2.211l-11.999 24c-0.62 1.24-0.554 2.713 0.175 3.893 0.729 1.178 2.016 1.896 3.402 1.896h23.997c1.387 0 2.674-0.718 3.402-1.896 0.729-1.18 0.795-2.653 0.176-3.893zM17.998 27c0 0.553-0.447 1-1 1h-2c-0.553 0-1-0.447-1-1v-2c0-0.553 0.447-1 1-1h2c0.553 0 1 0.447 1 1v2zM17.998 19c0 0.553-0.447 1-1 1h-2c-0.553 0-1-0.447-1-1v-10c0-0.552 0.447-1 1-1h2c0.553 0 1 0.448 1 1v10z"></path>
</symbol>
<symbol id="icon-check-alt" viewBox="0 0 32 32">
<path d="M16 0c-8.836 0-16 7.164-16 16s7.164 16 16 16 16-7.164 16-16-7.164-16-16-16zM13.52 23.383l-7.362-7.363 2.828-2.828 4.533 4.535 9.617-9.617 2.828 2.828-12.444 12.445z"></path>
</symbol>
<symbol id="icon-at" viewBox="0 0 32 32">
<path d="M29.844 24c1.371-2.355 2.156-5.078 2.156-8 0-8.836-7.164-16-16-16s-16 7.164-16 16 7.164 16 16 16c4.418 0 8.418-1.789 11.312-4.688l-2.832-2.832c-2.171 2.176-5.171 3.52-8.48 3.52-6.617 0-12-5.383-12-12s5.383-12 12-12 12 5.383 12 12c0 1.422-0.273 2.781-0.73 4.047l-0.032-0.047h-3.238v-11.957h-8c-4.418 0-8 3.582-8 8s3.582 8 8 8c1.836 0 3.508-0.645 4.859-1.684 0.727 0.969 1.836 1.641 3.141 1.641h5.844zM20 14.008v2.035c0 2.207-1.797 4-4 4s-4-1.793-4-4 1.797-4 4-4h4v1.965z"></path>
</symbol>
<symbol id="icon-star" viewBox="0 0 32 32">
<path d="M22.137 19.625l9.863-7.625h-12l-4-12-4 12h-12l9.875 7.594-3.875 12.406 10.016-7.68 9.992 7.68z"></path>
</symbol>
<symbol id="icon-phone" viewBox="0 0 32 32">
<path d="M22 20c-2 2-2 4-4 4s-4-2-6-4-4-4-4-6 2-2 4-4-4-8-6-8-6 6-6 6c0 4 4.109 12.109 8 16s12 8 16 8c0 0 6-4 6-6s-6-8-8-6z"></path>
</symbol>
<symbol id="icon-smile" viewBox="0 0 32 32">
<path d="M16 32c8.837 0 16-7.163 16-16s-7.163-16-16-16-16 7.163-16 16 7.163 16 16 16zM16 3c7.18 0 13 5.82 13 13s-5.82 13-13 13-13-5.82-13-13 5.82-13 13-13zM8 10c0-1.105 0.895-2 2-2s2 0.895 2 2c0 1.105-0.895 2-2 2s-2-0.895-2-2zM20 10c0-1.105 0.895-2 2-2s2 0.895 2 2c0 1.105-0.895 2-2 2s-2-0.895-2-2zM22.003 19.602l2.573 1.544c-1.749 2.908-4.935 4.855-8.576 4.855s-6.827-1.946-8.576-4.855l2.573-1.544c1.224 2.036 3.454 3.398 6.003 3.398s4.779-1.362 6.003-3.398z"></path>
</symbol>
<symbol id="icon-whistle" viewBox="0 0 32 32">
<path d="M8.213 17.41c0.697-2.542 3.024-4.41 5.787-4.41h1v2h3v-2h10v3l-8.132 1.743c0.086 0.405 0.132 0.826 0.132 1.257 0 3.314-2.686 6-6 6-2.763 0-5.090-1.868-5.787-4.41-0.336 0.257-0.757 0.41-1.213 0.41-1.105 0-2-0.895-2-2s0.895-2 2-2c0.456 0 0.877 0.153 1.213 0.41v0 0zM7 18c-0.552 0-1 0.444-1 1 0 0.552 0.444 1 1 1 0.552 0 1-0.444 1-1 0-0.552-0.444-1-1-1v0zM16 7v4h1v-4h-1zM21.12 8.021l-2.12 3.392 0.848 0.53 2.12-3.392-0.848-0.53zM11.848 8.021l2.12 3.392-0.848 0.53-2.12-3.392 0.848-0.53z"></path>
</symbol>
<symbol id="icon-soccer-ball" viewBox="0 0 32 32">
<path d="M8.816 14.551l3.546 1.505 1.252 4.303-2.464 2.552-4.045 0.222c-1.234-1.745-1.995-3.849-2.094-6.125l3.804-2.457zM8.904 13.502l-1.542-3.986c1.303-1.702 3.070-3.029 5.113-3.792l3.525 2.869v3.814l-3.317 2.7-3.779-1.604zM12.122 23.343l2.263-2.343h4.118l2.351 2.435-1.086 4.095c-1.036 0.306-2.132 0.471-3.267 0.471s-2.232-0.164-3.267-0.471l-1.11-4.186zM21.732 22.904l-2.371-2.456 1.29-4.434 3.5-1.486 3.839 2.479c-0.099 2.276-0.859 4.38-2.094 6.125l-4.164-0.229zM24.113 13.459l-3.826 1.624-3.287-2.676v-3.814l3.525-2.869c2.043 0.763 3.81 2.090 5.113 3.792l-1.525 3.942zM16.5 29c6.904 0 12.5-5.596 12.5-12.5s-5.596-12.5-12.5-12.5c-6.904 0-12.5 5.596-12.5 12.5s5.596 12.5 12.5 12.5v0z"></path>
</symbol>
<symbol id="icon-calendar" viewBox="0 0 20 20">
<path d="M17 3h-1v2h-3v-2h-6v2h-3v-2h-1c-1.101 0-2 0.9-2 2v12c0 1.1 0.899 2 2 2h14c1.1 0 2-0.9 2-2v-12c0-1.1-0.9-2-2-2zM17 17h-14v-8h14v8zM6.5 1h-2v3.5h2v-3.5zM15.5 1h-2v3.5h2v-3.5z"></path>
</symbol>
</defs>
</svg>
